<?xml version="1.0" encoding="utf-8"?>
<!-- Generator: Adobe Illustrator 27.9.0, SVG Export Plug-In . SVG Version: 6.00 Build 0)  -->
<svg version="1.1" id="Capa_1" xmlns="http://www.w3.org/2000/svg" xmlns:xlink="http://www.w3.org/1999/xlink" x="0px" y="0px"
	 viewBox="0 0 1080 1080" style="enable-background:new 0 0 1080 1080;" xml:space="preserve">
<style type="text/css">
	.st0{fill:#FFFFFF;}
</style>
<g id="a">
</g>
<g id="b">
	<g id="c">
		<g>
			<path class="st0" d="M476.3,701.4c7.8,0.2,15.5,0.3,23.3,0.5c0.6-36.2,1.2-71.8,1.8-106.2c-12.5,44.9-28.1,100.7-28.3,101.3
				C472.2,700.9,472.4,701.3,476.3,701.4L476.3,701.4z"/>
			<path class="st0" d="M452.7,700.6c3.5,0.2,4.6-1.1,5.4-4.1c5.5-20.2,29-104.2,44.2-158.5c0.9-55,1.7-105.6,2.5-149.3
				C474,492,443.2,595.4,412.2,699.3C426.5,699.7,439.6,700.1,452.7,700.6L452.7,700.6z"/>
			<path class="st0" d="M451.6,373.4c-3.4,3-5.8,6.2-7.1,10.5c-31.8,101.1-63.8,202.2-95.7,303.3c-3.2,10.2-3.2,10.2,8.1,10.5
				c11.1,0.3,22.2,0.6,33.3,1c6.9,0.2,6.9,0.3,8.8-5.8c8.9-29.8,78.2-262.2,106.8-358.4c0.1-4.1,0.1-8.1,0.2-12
				c-0.2,0.3-0.5,0.6-0.8,0.9C488,340.8,470,357.3,451.6,373.4L451.6,373.4z"/>
			<path class="st0" d="M547.5,588.8h-15c-1.9,0-3.5,1.7-3.5,3.7v105.9c0,2.1,1.5,3.7,3.5,3.7h15c1.9,0,3.5-1.7,3.5-3.7V592.5
				C551,590.5,549.4,588.8,547.5,588.8z"/>
			<path class="st0" d="M547.5,939.1h-15c-1.9,0-3.5,1.7-3.5,3.7V985c3.7,0.1,7.3,0.1,11,0.1s7.3,0,11-0.1v-42.2
				C551,940.8,549.4,939.1,547.5,939.1L547.5,939.1z"/>
			<path class="st0" d="M547.5,730.9h-15c-1.9,0-3.5,1.7-3.5,3.7v156.7c0,2.1,1.5,3.7,3.5,3.7h15c1.9,0,3.5-1.7,3.5-3.7V734.7
				C551,732.6,549.4,730.9,547.5,730.9z"/>
			<path class="st0" d="M219.8,533.9c-2.4,1.4-4.1,2.9-5.1,5.6c-18.4,49.6-36.9,99.1-55.3,148.7c-0.3,0.8-0.4,1.6-0.8,3
				c2.7,0.1,5.1,0.3,7.5,0.4c10.9,0.4,21.8,0.7,32.6,1c5.5,0.2,5.6,0.1,7.4-5.1c13.1-36.7,55.8-156.4,64-179.6
				c0.3-0.8,0.5-1.5,1-3.1c-3.7,0.8-5.7,2.6-8,4C248.7,517.1,234.3,525.6,219.8,533.9L219.8,533.9z"/>
			<path class="st0" d="M297.1,488c-3.6,2.2-5.7,5-7.1,8.8c-18.9,53.2-64.6,181-68.3,191.7c-1.6,4.5-1.6,4.7,3.3,4.9
				c10.6,0.4,21.3,0.7,32,0.9c3.7,0,8.1,2.1,11.1-0.4c2.6-2.2,2.6-6.2,3.7-9.5c24.3-73.2,48.6-146.5,72.9-219.8c1-3,1.9-6,2.8-9.1
				c-0.4-0.2-0.7-0.3-1.1-0.5C336.5,461.9,303.8,484,297.1,488L297.1,488z"/>
			<path class="st0" d="M144.8,685.9c9-24,42.3-112.5,49.8-132.8c0.6-1.5,1.8-3,1-5.3c-7.2,3.7-14.2,7.4-21.2,11
				c-11.3,5.8-22.6,11.8-33.9,17.5c-2.5,1.3-4.3,2.7-5.4,5.3c-9,22.1-18,44.2-27,66.4c3.6,14.3,7.8,28.3,12.7,42
				c7.1,0.2,13.6,0.5,16.9,0.5C143,690.6,143.1,690.6,144.8,685.9L144.8,685.9z"/>
			<path class="st0" d="M111.4,590.6c-4.3,2-8.7,3.9-13,5.9c1.1,8.8,2.5,17.4,4.1,26c4.4-10.8,8.9-21.6,13.3-32.4
				C113.9,588.6,112.7,590,111.4,590.6L111.4,590.6z"/>
			<path class="st0" d="M495,982.9c1.4-82.5,2.8-168.8,4.2-252.5c-45,0.2-210.7,0.8-360.9,1.5C203.8,868.8,337.2,967,495,982.9z"/>
			<path class="st0" d="M547.5,451.7h-15c-1.9,0-3.5,1.7-3.5,3.7v90.7c0,2.1,1.5,3.7,3.5,3.7h15c1.9,0,3.5-1.7,3.5-3.7v-90.7
				C551,453.4,549.4,451.7,547.5,451.7L547.5,451.7z"/>
			<path class="st0" d="M284.6,695.3c14,0.5,28,0.7,42,1.4c4.4,0.2,4.6-2.6,5.4-5.1c6.9-21.6,68.2-216.1,92.1-291.7
				c0.2-0.8,0.5-1.6,1.1-3.9c-11.9,9.1-22.7,17.6-33.5,25.9c-6,4.6-12,9.1-18.2,13.4c-3.4,2.4-5.5,5.2-6.8,9.1
				c-19,57.7-72.9,220.6-80.8,244.3C285.3,690.9,284.2,692.8,284.6,695.3L284.6,695.3z"/>
			<path class="st0" d="M627.3,700.6c13.1-0.6,26.2-0.9,40.5-1.3c-31-103.9-61.8-207.3-92.5-310.6c0.7,43.7,1.5,94.4,2.5,149.3
				c15.2,54.2,38.7,138.3,44.2,158.5C622.7,699.5,623.8,700.8,627.3,700.6L627.3,700.6z"/>
			<path class="st0" d="M585,982.9c157.8-15.8,291.2-114.1,356.8-251c-150.3-0.7-315.9-1.3-360.9-1.5
				C582.2,814,583.7,900.4,585,982.9z"/>
			<path class="st0" d="M964.2,590.1c4.5,10.8,8.9,21.6,13.3,32.4c1.6-8.6,3-17.3,4.1-26c-4.3-2-8.7-4-13-5.9
				C967.4,590,966.1,588.6,964.2,590.1L964.2,590.1z"/>
			<path class="st0" d="M939.5,576.4c-11.3-5.8-22.6-11.7-33.9-17.5c-7-3.7-14.1-7.3-21.2-11c-0.8,2.3,0.5,3.8,1,5.3
				c7.5,20.2,40.8,108.8,49.8,132.8c1.8,4.7,1.8,4.7,7.2,4.6c3.3-0.1,9.8-0.3,16.9-0.5c4.9-13.7,9.1-27.7,12.7-42
				c-9-22.1-18-44.2-27-66.4C943.8,579.1,942,577.6,939.5,576.4L939.5,576.4z"/>
			<path class="st0" d="M540,94.9C294.1,94.9,94.9,294.2,94.9,540c0,10.2,0.3,20.4,1,30.5C230.1,511.2,384,423.8,506.3,295.6
				c0.6-39.1,1-63.2,1-66.9c0-6.6,14.9-17.2,21.2-18.4c0,17.4,0,33.3,0,49.3c0,9.5,0.1,9.5,4.5,9.7c2.3,0.1,11.7,0.1,14,0
				c4.4-0.1,4.4-0.2,4.5-9.7c0-16,0-32,0-49.3c6.3,1.1,21.2,11.8,21.2,18.4c0,3.6,0.4,27.7,1,66.9
				C696,423.8,849.9,511.2,984.1,570.5c0.7-10.1,1-20.2,1-30.5C985.1,294.1,785.8,94.9,540,94.9L540,94.9z"/>
			<path class="st0" d="M540,0C241.8,0,0,241.8,0,540s241.8,540,540,540s540-241.8,540-540S838.2,0,540,0z M1026.4,622.3
				c-3.8,22.7-9.2,44.8-16,66.4c-4.7,14.8-10,29.3-16,43.5c-69.2,163.3-223.9,282-408.6,299c-11.5,1.1-23.1,1.7-34.8,2
				c-1.7,0-3.3,0.1-5,0.1c-5.7,0.1-11.3,0-16.9-0.1c-11.7-0.2-23.3-0.9-34.8-2c-184.1-16.9-339.3-135.2-408.6-299
				c-6-14.2-11.3-28.7-16-43.5c-6.8-21.5-12.2-43.7-16-66.4c-1.8-10.5-3.2-21.2-4.3-32c-1.5-14.6-2.3-29.4-2.5-44.3
				C43.5,273.6,261.6,50.1,534,46.8c272.4-3.3,495.9,214.9,499.2,487.3c0.2,19-0.6,37.8-2.5,56.3
				C1029.7,601.1,1028.2,611.8,1026.4,622.3L1026.4,622.3z"/>
			<path class="st0" d="M689.9,698.8c11.1-0.4,22.2-0.7,33.3-1c11.3-0.3,11.3-0.3,8.1-10.5c-31.9-101.1-63.9-202.2-95.7-303.3
				c-1.3-4.3-3.7-7.5-7.1-10.5c-18.5-16-36.4-32.6-53.5-50c-0.3-0.3-0.5-0.6-0.8-0.9c0.1,3.9,0.1,7.9,0.2,12
				c28.6,96.2,97.9,328.6,106.8,358.4C682.9,699.1,683,699,689.9,698.8L689.9,698.8z"/>
			<path class="st0" d="M782.9,488c-6.7-4-39.4-26.1-49.3-32.8c-0.3,0.2-0.7,0.3-1.1,0.5c0.9,3,1.8,6.1,2.8,9.1
				c24.3,73.3,48.6,146.5,72.9,219.8c1.1,3.2,1.1,7.3,3.7,9.5c3,2.5,7.3,0.4,11.1,0.4c10.7-0.2,21.3-0.5,32-0.9
				c4.9-0.2,4.9-0.4,3.3-4.9c-3.8-10.7-49.4-138.5-68.3-191.7C788.6,493,786.5,490.2,782.9,488L782.9,488z"/>
			<path class="st0" d="M547.5,353.6h-15c-1.9,0-3.5,1.7-3.5,3.7v48.4c0,2.1,1.5,3.7,3.5,3.7h15c1.9,0,3.5-1.7,3.5-3.7v-48.4
				C551,355.2,549.4,353.6,547.5,353.6z"/>
			<path class="st0" d="M606.9,697.1c-0.2-0.7-15.7-56.4-28.3-101.3c0.6,34.3,1.2,69.9,1.8,106.2c7.8-0.2,15.5-0.3,23.3-0.5
				C607.6,701.3,607.8,700.9,606.9,697.1L606.9,697.1z"/>
			<path class="st0" d="M706.5,435.5c-6.2-4.3-12.2-8.9-18.2-13.4c-10.9-8.3-21.7-16.7-33.5-25.9c0.6,2.3,0.8,3.1,1.1,3.9
				c23.9,75.6,85.2,270.1,92.1,291.7c0.8,2.5,1,5.3,5.4,5.1c14-0.7,28-1,42-1.4c0.4-2.5-0.7-4.5-1.3-6.5
				c-7.8-23.8-61.8-186.6-80.8-244.3C712,440.6,709.9,437.8,706.5,435.5L706.5,435.5z"/>
			<path class="st0" d="M881.3,692.5c10.9-0.3,21.8-0.7,32.6-1c2.4-0.1,4.8-0.2,7.5-0.4c-0.3-1.3-0.5-2.2-0.8-3
				c-18.5-49.6-37-99.1-55.3-148.7c-1-2.7-2.7-4.2-5.1-5.6c-14.5-8.3-28.9-16.8-43.4-25.2c-2.3-1.3-4.3-3.1-8-4
				c0.5,1.5,0.7,2.3,1,3.1c8.2,23.2,50.9,142.9,64,179.6C875.7,692.6,875.8,692.7,881.3,692.5L881.3,692.5z"/>
		</g>
	</g>
</g>
</svg>
