<?xml version="1.0" encoding="utf-8"?>
<!-- Generator: Adobe Illustrator 27.9.0, SVG Export Plug-In . SVG Version: 6.00 Build 0)  -->
<svg version="1.1" id="Capa_1" xmlns="http://www.w3.org/2000/svg" xmlns:xlink="http://www.w3.org/1999/xlink" x="0px" y="0px"
	 viewBox="0 0 78 78" style="enable-background:new 0 0 78 78;" xml:space="preserve">
<style type="text/css">
	.st0{fill-rule:evenodd;clip-rule:evenodd;fill:#FFFFFF;}
</style>
<g>
	<path class="st0" d="M54,66v6H24v-6H54z M60,60v6h-6v-6H60z M24,60v6h-6v-6H24z M66,54v6h-6v-6H66z M18,54v6h-6v-6H18z M54,48v6h-6
		v-6H54z M72,24v30h-6V24H72z M6,24h6v30H6V24z M48,42v6h-6v-6H48z M42,18v24h-6V18H42z M66,18v6h-6v-6H66z M18,18v6h-6v-6H18z
		 M60,12v6h-6v-6H60z M24,12v6h-6v-6H24z M54,6v6H24V6H54z"/>
</g>
</svg>
