<?xml version="1.0" encoding="utf-8"?>
<!-- Generator: Adobe Illustrator 27.9.0, SVG Export Plug-In . SVG Version: 6.00 Build 0)  -->
<svg version="1.1" id="Capa_1" xmlns="http://www.w3.org/2000/svg" xmlns:xlink="http://www.w3.org/1999/xlink" x="0px" y="0px"
	 viewBox="0 0 78 78" style="enable-background:new 0 0 78 78;" xml:space="preserve">
<style type="text/css">
	.st0{fill:#FFFFFF;}
</style>
<g>
	<path class="st0" d="M18,36h-6v6c6,0,12,0,18,0v-6C26,36,22,36,18,36L18,36z"/>
	<path class="st0" d="M60,36c-4,0-8,0-12,0v6c6,0,12,0,18,0v-6H60L60,36z"/>
	<path class="st0" d="M36,54c0,4,0,8,0,12h6c0-6,0-12,0-18h-6V54L36,54z"/>
	<path class="st0" d="M36,18c0,4,0,8,0,12h6c0-6,0-12,0-18h-6V18L36,18z"/>
</g>
</svg>
