<?xml version="1.0" encoding="utf-8"?>
<!-- Generator: Adobe Illustrator 27.9.0, SVG Export Plug-In . SVG Version: 6.00 Build 0)  -->
<svg version="1.1" id="Capa_1" xmlns="http://www.w3.org/2000/svg" xmlns:xlink="http://www.w3.org/1999/xlink" x="0px" y="0px"
	 viewBox="0 0 78 78" style="enable-background:new 0 0 78 78;" xml:space="preserve">
<style type="text/css">
	.st0{fill:#FFFFFF;}
</style>
<g>
	<path class="st0" d="M51,48v-6h6v-6h-6v-6c-4,0-8,0-12,0v-6h-6v6h-6v-6h-6v6h-6c0,10,0,20,0,30h6c0-8,0-16,0-24c8,0,16,0,24,0
		c0,8,0,16,0,24c4,0,8,0,12,0v-6h-6V48L51,48z"/>
	<path class="st0" d="M33,60c-4,0-8,0-12,0v6c8,0,16,0,24,0v-6C41,60,37,60,33,60L33,60z"/>
	<path class="st0" d="M57,42c0,4,0,8,0,12h6c0-4,0-8,0-12H57L57,42z"/>
	<polygon class="st0" points="45,24 45,18 39,18 39,24 	"/>
	<polygon class="st0" points="39,12 33,12 33,18 39,18 	"/>
	<polygon class="st0" points="33,18 27,18 27,24 33,24 	"/>
	<polygon class="st0" points="21,12 21,18 27,18 27,12 	"/>
</g>
</svg>
