<?xml version="1.0" encoding="utf-8"?>
<!-- Generator: Adobe Illustrator 27.9.0, SVG Export Plug-In . SVG Version: 6.00 Build 0)  -->
<svg version="1.1" id="Capa_1" xmlns="http://www.w3.org/2000/svg" xmlns:xlink="http://www.w3.org/1999/xlink" x="0px" y="0px"
	 viewBox="0 0 78 78" style="enable-background:new 0 0 78 78;" xml:space="preserve">
<path d="M60,24c-8,0-16,0-24,0v6c8,0,16,0,24,0c0,8,0,16,0,24c-14,0-28,0-42,0c0-10,0-20,0-30c6,0,12,0,18,0v-6c-8,0-16,0-24,0
	c0,14,0,28,0,42c18,0,36,0,54,0c0-12,0-24,0-36H60L60,24z"/>
</svg>
