<?xml version="1.0" encoding="utf-8"?>
<!-- Generator: Adobe Illustrator 27.9.0, SVG Export Plug-In . SVG Version: 6.00 Build 0)  -->
<svg version="1.1" id="Capa_1" xmlns="http://www.w3.org/2000/svg" xmlns:xlink="http://www.w3.org/1999/xlink" x="0px" y="0px"
	 viewBox="0 0 78 78" style="enable-background:new 0 0 78 78;" xml:space="preserve">
<g>
	<path d="M42,18h6v-6c-6,0-12,0-18,0v6C34,18,38,18,42,18L42,18z"/>
	<path d="M54,36c0-6,0-12,0-18h-6c0,6,0,12,0,18c-6,0-12,0-18,0c0-6,0-12,0-18h-6c0,6,0,12,0,18h-6c0,10,0,20,0,30c14,0,28,0,42,0
		c0-10,0-20,0-30H54L54,36z M54,48c0,4,0,8,0,12c-10,0-20,0-30,0c0-6,0-12,0-18c10,0,20,0,30,0V48L54,48z"/>
</g>
</svg>
