<?xml version="1.0" encoding="UTF-8"?>
<svg id="Capa_1" data-name="Capa 1" xmlns="http://www.w3.org/2000/svg" viewBox="0 0 1254.58 309">
  <defs>
    <style>
      .cls-1 {
        fill: #fff;
        stroke-width: 0px;
      }
    </style>
  </defs>
  <path class="cls-1" d="m664.99,113.88v135.79h-55.82V113.88h-44.28l7.25-52.06h129.89l7.25,52.06h-44.28Z"/>
  <path class="cls-1" d="m780.92,249.67h-55.82V61.82h55.82v187.85Z"/>
  <path class="cls-1" d="m863.85,134.01h49.92v50.18h-49.92v65.48h-55.82V61.82h110.83l6.98,50.18h-61.99v22.01Z"/>
  <path class="cls-1" d="m1066.99,201.1l-6.71,48.57h-116.2V61.82h113.78l6.71,48.57h-65.48v20.13h52.6v48.57h-52.6v22.01h67.89Z"/>
  <path class="cls-1" d="m1191.24,249.67l-27.37-55.28-27.37,55.28h-63.33l53.4-96.34-49.91-91.51h63.33l23.88,49.92,23.88-49.92h63.33l-49.65,91.51,53.14,96.34h-63.33Z"/>
  <path class="cls-1" d="m122.27,80.26c-13.07-11.6-31.11-18.45-51.96-18.45H0v187.85h55.82v-49.38h14.49c13.97,0,26.67-3.11,37.48-8.68-2.93-11.89-4.5-24.32-4.5-37.12,0-26.91,6.88-52.2,18.98-74.24Zm-58.4,73.33h-8.05v-45.08h8.05c14.49,0,24.69,9.12,24.69,22.27s-10.2,22.81-24.69,22.81Z"/>
  <path class="cls-1" d="m259.94,268.68h-4.3c-.55,0-.99.48-.99,1.07v12.07c1.04.03,2.09.04,3.14.04s2.1-.01,3.14-.04v-12.07c0-.59-.44-1.07-.99-1.07Z"/>
  <path class="cls-1" d="m232.48,106.84c-.98.85-1.65,1.78-2.04,3-9.11,28.93-18.25,57.85-27.39,86.78-.92,2.92-.91,2.92,2.32,3.01,3.18.09,6.35.18,9.53.3,1.97.07,1.99.09,2.51-1.65,2.54-8.51,22.36-75.01,30.55-102.53.02-1.18.04-2.32.06-3.44-.07.08-.14.17-.22.24-4.9,4.96-10.03,9.71-15.32,14.3Z"/>
  <path class="cls-1" d="m232.82,200.46c.99.04,1.31-.33,1.54-1.18,1.58-5.77,8.3-29.82,12.65-45.34.26-15.72.5-30.21.7-42.72-8.81,29.55-17.62,59.12-26.48,88.85,4.08.13,7.83.22,11.59.39Z"/>
  <path class="cls-1" d="m239.57,200.68c2.22.07,4.45.09,6.67.15.17-10.37.34-20.54.5-30.37-3.59,12.85-8.04,28.8-8.09,28.98-.26,1.09-.21,1.21.92,1.24Z"/>
  <path class="cls-1" d="m259.94,168.46h-4.3c-.55,0-.99.48-.99,1.07v30.3c0,.59.44,1.07.99,1.07h4.3c.55,0,.99-.48.99-1.07v-30.3c0-.59-.44-1.07-.99-1.07Z"/>
  <path class="cls-1" d="m259.94,209.13h-4.3c-.55,0-.99.48-.99,1.07v44.83c0,.59.44,1.07.99,1.07h4.3c.55,0,.99-.48.99-1.07v-44.83c0-.59-.44-1.07-.99-1.07Z"/>
  <path class="cls-1" d="m259.94,129.24h-4.3c-.55,0-.99.48-.99,1.07v25.94c0,.59.44,1.07.99,1.07h4.3c.55,0,.99-.48.99-1.07v-25.94c0-.59-.44-1.07-.99-1.07Z"/>
  <path class="cls-1" d="m167.67,198.42c3.04.13,6.09.21,9.14.25,1.07.02,2.32.6,3.17-.11.74-.61.74-1.78,1.05-2.7,6.96-20.96,13.91-41.92,20.87-62.88.28-.86.54-1.73.81-2.59-.1-.05-.2-.1-.3-.15-2.84,1.91-12.2,8.23-14.11,9.38-1.04.63-1.63,1.44-2.02,2.53-5.41,15.23-18.47,51.79-19.55,54.85-.46,1.29-.44,1.35.95,1.41Z"/>
  <path class="cls-1" d="m244.91,281.22c.39-23.6.8-48.31,1.2-72.24-12.89.06-60.28.24-103.27.42,18.75,39.18,56.93,67.28,102.07,71.81Z"/>
  <path class="cls-1" d="m135.16,168.98c-.91.41-1.82.83-2.73,1.24-.33.15-.66.3-.98.45.03.25.07.51.11.76.3,2.25.65,4.48,1.06,6.69,1.27-3.09,2.55-6.19,3.82-9.28-.55-.43-.91-.03-1.28.14Z"/>
  <path class="cls-1" d="m144.73,196.24c2.58-6.87,12.09-32.2,14.24-37.99.16-.43.52-.85.29-1.51-2.05,1.06-4.06,2.11-6.07,3.16-3.23,1.67-6.45,3.36-9.7,5.01-.71.36-1.24.77-1.54,1.51-2.57,6.33-5.15,12.66-7.73,18.99,1.02,4.08,2.23,8.09,3.63,12,2.04.07,3.9.13,4.84.15,1.53.03,1.54.03,2.05-1.32Z"/>
  <path class="cls-1" d="m148.66,197.74c.78.04,1.46.08,2.15.11,3.11.1,6.22.21,9.33.3,1.58.04,1.59.03,2.12-1.45,3.74-10.5,15.95-44.76,18.31-51.39.08-.22.14-.44.28-.88-1.05.24-1.62.76-2.27,1.14-4.14,2.4-8.26,4.82-12.41,7.2-.69.4-1.18.83-1.46,1.59-5.26,14.19-10.55,28.37-15.83,42.55-.08.22-.12.46-.22.84Z"/>
  <path class="cls-1" d="m184.72,198.95c4,.13,8.02.21,12.03.41,1.27.06,1.31-.74,1.54-1.45,1.96-6.18,19.52-61.82,26.35-83.46.07-.23.13-.46.31-1.11-3.39,2.62-6.48,5.02-9.6,7.41-1.71,1.31-3.43,2.61-5.2,3.85-.97.68-1.59,1.49-1.95,2.6-5.43,16.51-20.86,63.1-23.11,69.9-.19.57-.49,1.13-.38,1.86Z"/>
  <path class="cls-1" d="m379.14,168.84c1.27,3.09,2.55,6.18,3.82,9.28.46-2.46.85-4.94,1.17-7.45-1.24-.56-2.48-1.13-3.71-1.69-.36-.16-.73-.57-1.28-.14Z"/>
  <path class="cls-1" d="m372.09,164.91c-3.25-1.65-6.47-3.33-9.7-5.01-2.01-1.04-4.03-2.09-6.07-3.16-.23.65.13,1.07.29,1.51,2.15,5.79,11.66,31.12,14.24,37.99.51,1.35.52,1.35,2.05,1.32.94-.02,2.8-.08,4.84-.15,1.4-3.92,2.62-7.92,3.63-12-2.58-6.33-5.16-12.66-7.73-18.99-.3-.74-.83-1.15-1.54-1.51Z"/>
  <path class="cls-1" d="m259.94,101.16h-4.3c-.55,0-.99.48-.99,1.07v13.84c0,.59.44,1.07.99,1.07h4.3c.55,0,.99-.48.99-1.07v-13.84c0-.59-.44-1.07-.99-1.07Z"/>
  <path class="cls-1" d="m495.39,61.82v91.51l-67.36-91.51h-46.62c19.39,25.82,30.88,57.91,30.88,92.68s-12.25,68.94-32.79,95.17h51.21v-92.58l67.9,92.58h51.79V61.82h-55.01Z"/>
  <path class="cls-1" d="m381.41,61.82h0C353.22,24.28,308.34,0,257.79,0c-58.42,0-109.26,32.43-135.52,80.26-12.09,22.03-18.98,47.33-18.98,74.24,0,12.8,1.57,25.23,4.5,37.12,16.62,67.4,77.47,117.38,150,117.38,49.43,0,93.43-23.21,121.71-59.33,20.54-26.23,32.79-59.27,32.79-95.17s-11.49-66.86-30.88-92.68Zm15.55,116.23c-1.09,6.49-2.62,12.83-4.57,18.99-1.34,4.23-2.87,8.38-4.58,12.43-3.35,7.92-7.43,15.46-12.11,22.57-22.95,34.82-60.91,58.94-104.8,62.98-3.29.3-6.61.49-9.97.57-.48.01-.96.02-1.44.03-1.62.02-3.24,0-4.85-.03-3.35-.07-6.68-.26-9.97-.56-52.66-4.85-97.08-38.68-116.91-85.56-1.71-4.05-3.24-8.2-4.58-12.43-1.36-4.31-2.51-8.71-3.45-13.19-.41-1.92-.79-3.85-1.11-5.8-.51-3.02-.92-6.07-1.23-9.15-.42-4.18-.67-8.41-.72-12.69-.28-23.53,5.21-45.77,15.16-65.4,23-45.4,69.84-76.77,124.25-77.43,49.89-.6,94.05,24.76,119.62,63.54h0c14.37,21.8,22.87,47.83,23.21,75.87.07,5.44-.18,10.81-.71,16.1-.31,3.08-.72,6.13-1.23,9.15Z"/>
  <path class="cls-1" d="m276.92,199.44c-.05-.19-4.5-16.13-8.09-28.98.16,9.83.33,20.01.5,30.37,2.22-.05,4.45-.08,6.67-.15,1.12-.03,1.18-.15.92-1.24Z"/>
  <path class="cls-1" d="m257.79,27.14c-53.17,0-98.72,32.59-117.8,78.88-6.16,14.95-9.56,31.32-9.56,48.48,0,2.93.1,5.84.3,8.72,2.51-1.11,5.04-2.25,7.59-3.43,36.51-16.85,77.13-40.92,109.83-75.21.18-11.19.28-18.1.29-19.13.01-1.89,4.26-4.93,6.07-5.25,0,4.96,0,9.54,0,14.11,0,2.71.02,2.72,1.27,2.77.66.02,3.35.02,4.01,0,1.25-.04,1.27-.06,1.27-2.77.01-4.57,0-9.15,0-14.11,1.81.32,6.06,3.37,6.07,5.25,0,1.03.11,7.94.29,19.13,34.99,36.69,79.04,61.67,117.42,78.64.19-2.88.3-5.79.3-8.72,0-70.34-57.02-127.36-127.36-127.36Z"/>
  <path class="cls-1" d="m270.67,281.22c45.14-4.53,83.32-32.63,102.07-71.81-42.99-.19-90.38-.36-103.27-.42.4,23.93.81,48.64,1.2,72.24Z"/>
  <path class="cls-1" d="m334.54,195.86c.31.93.31,2.09,1.05,2.7.85.71,2.1.12,3.17.11,3.05-.04,6.1-.13,9.14-.25,1.39-.06,1.4-.12.95-1.41-1.08-3.06-14.14-39.62-19.55-54.85-.39-1.09-.98-1.9-2.02-2.53-1.9-1.16-11.27-7.47-14.11-9.38-.1.05-.2.1-.3.15.27.86.52,1.73.81,2.59,6.95,20.96,13.91,41.92,20.87,62.88Z"/>
  <path class="cls-1" d="m300.67,199.92c3.18-.11,6.35-.2,9.53-.3,3.23-.09,3.24-.09,2.32-3.01-9.13-28.92-18.28-57.85-27.39-86.78-.39-1.22-1.05-2.15-2.04-3-5.29-4.59-10.42-9.33-15.32-14.3-.08-.08-.15-.16-.22-.24.02,1.12.04,2.27.06,3.44,8.18,27.52,28.01,94.02,30.55,102.53.52,1.75.53,1.72,2.51,1.65Z"/>
  <path class="cls-1" d="m353.31,196.69c.53,1.48.54,1.5,2.12,1.45,3.11-.09,6.22-.19,9.33-.3.68-.02,1.37-.07,2.15-.11-.1-.38-.14-.62-.22-.84-5.28-14.18-10.57-28.36-15.83-42.55-.28-.76-.77-1.19-1.46-1.59-4.15-2.39-8.27-4.81-12.41-7.2-.65-.38-1.23-.9-2.27-1.14.14.44.2.66.28.88,2.36,6.63,14.57,40.9,18.31,51.39Z"/>
  <path class="cls-1" d="m317.29,197.91c.23.71.27,1.52,1.54,1.45,4.01-.2,8.03-.28,12.03-.41.12-.73-.19-1.28-.38-1.86-2.24-6.8-17.67-53.39-23.11-69.9-.37-1.11-.98-1.92-1.95-2.6-1.77-1.24-3.49-2.54-5.2-3.85-3.11-2.38-6.21-4.79-9.6-7.41.18.65.23.88.31,1.11,6.83,21.64,24.39,77.28,26.35,83.46Z"/>
  <path class="cls-1" d="m282.76,200.46c3.75-.16,7.51-.26,11.59-.39-8.86-29.73-17.67-59.31-26.48-88.85.2,12.51.44,27,.7,42.72,4.35,15.52,11.08,39.57,12.65,45.34.23.85.55,1.22,1.54,1.18Z"/>
</svg>