<?xml version="1.0" encoding="utf-8"?>
<!-- Generator: Adobe Illustrator 27.9.0, SVG Export Plug-In . SVG Version: 6.00 Build 0)  -->
<svg version="1.1" id="Capa_1" xmlns="http://www.w3.org/2000/svg" xmlns:xlink="http://www.w3.org/1999/xlink" x="0px" y="0px"
	 viewBox="0 0 1254.6 309" style="enable-background:new 0 0 1254.6 309;" xml:space="preserve">
<path d="M665,113.9v135.8h-55.8V113.9h-44.3l7.2-52.1H702l7.2,52.1H665L665,113.9z"/>
<path d="M780.9,249.7h-55.8V61.8h55.8V249.7L780.9,249.7z"/>
<path d="M863.8,134h49.9v50.2h-49.9v65.5H808V61.8h110.8l7,50.2h-62V134z"/>
<path d="M1067,201.1l-6.7,48.6H944.1V61.8h113.8l6.7,48.6h-65.5v20.1h52.6v48.6h-52.6v22L1067,201.1L1067,201.1z"/>
<path d="M1191.2,249.7l-27.4-55.3l-27.4,55.3h-63.3l53.4-96.3l-49.9-91.5h63.3l23.9,49.9l23.9-49.9h63.3l-49.7,91.5l53.1,96.3
	H1191.2z"/>
<path d="M122.3,80.3c-13.1-11.6-31.1-18.5-52-18.5H0v187.9h55.8v-49.4h14.5c14,0,26.7-3.1,37.5-8.7c-2.9-11.9-4.5-24.3-4.5-37.1
	C103.3,127.6,110.2,102.3,122.3,80.3L122.3,80.3z M63.9,153.6h-8v-45.1h8c14.5,0,24.7,9.1,24.7,22.3S78.4,153.6,63.9,153.6z"/>
<path d="M259.9,268.7h-4.3c-0.6,0-1,0.5-1,1.1v12.1c1,0,2.1,0,3.1,0s2.1,0,3.1,0v-12.1C260.9,269.2,260.5,268.7,259.9,268.7
	L259.9,268.7z"/>
<path d="M232.5,106.8c-1,0.8-1.6,1.8-2,3c-9.1,28.9-18.2,57.9-27.4,86.8c-0.9,2.9-0.9,2.9,2.3,3c3.2,0.1,6.4,0.2,9.5,0.3
	c2,0.1,2,0.1,2.5-1.6c2.5-8.5,22.4-75,30.6-102.5c0-1.2,0-2.3,0.1-3.4c-0.1,0.1-0.1,0.2-0.2,0.2C242.9,97.5,237.8,102.3,232.5,106.8
	L232.5,106.8z"/>
<path d="M232.8,200.5c1,0,1.3-0.3,1.5-1.2c1.6-5.8,8.3-29.8,12.6-45.3c0.3-15.7,0.5-30.2,0.7-42.7c-8.8,29.6-17.6,59.1-26.5,88.8
	C225.3,200.2,229.1,200.3,232.8,200.5L232.8,200.5z"/>
<path d="M239.6,200.7c2.2,0.1,4.4,0.1,6.7,0.1c0.2-10.4,0.3-20.5,0.5-30.4c-3.6,12.9-8,28.8-8.1,29
	C238.4,200.5,238.4,200.6,239.6,200.7z"/>
<path d="M259.9,168.5h-4.3c-0.6,0-1,0.5-1,1.1v30.3c0,0.6,0.4,1.1,1,1.1h4.3c0.5,0,1-0.5,1-1.1v-30.3
	C260.9,168.9,260.5,168.5,259.9,168.5z"/>
<path d="M259.9,209.1h-4.3c-0.6,0-1,0.5-1,1.1V255c0,0.6,0.4,1.1,1,1.1h4.3c0.5,0,1-0.5,1-1.1v-44.8
	C260.9,209.6,260.5,209.1,259.9,209.1L259.9,209.1z"/>
<path d="M259.9,129.2h-4.3c-0.6,0-1,0.5-1,1.1v25.9c0,0.6,0.4,1.1,1,1.1h4.3c0.5,0,1-0.5,1-1.1v-25.9
	C260.9,129.7,260.5,129.2,259.9,129.2z"/>
<path d="M167.7,198.4c3,0.1,6.1,0.2,9.1,0.2c1.1,0,2.3,0.6,3.2-0.1c0.7-0.6,0.7-1.8,1.1-2.7c7-21,13.9-41.9,20.9-62.9
	c0.3-0.9,0.5-1.7,0.8-2.6c-0.1-0.1-0.2-0.1-0.3-0.1c-2.8,1.9-12.2,8.2-14.1,9.4c-1,0.6-1.6,1.4-2,2.5c-5.4,15.2-18.5,51.8-19.6,54.8
	C166.3,198.3,166.3,198.4,167.7,198.4L167.7,198.4z"/>
<path d="M244.9,281.2c0.4-23.6,0.8-48.3,1.2-72.2c-12.9,0.1-60.3,0.2-103.3,0.4C161.6,248.6,199.8,276.7,244.9,281.2L244.9,281.2z"
	/>
<path d="M135.2,169c-0.9,0.4-1.8,0.8-2.7,1.2c-0.3,0.1-0.7,0.3-1,0.4c0,0.2,0.1,0.5,0.1,0.8c0.3,2.2,0.6,4.5,1.1,6.7
	c1.3-3.1,2.6-6.2,3.8-9.3C135.9,168.4,135.5,168.8,135.2,169L135.2,169z"/>
<path d="M144.7,196.2c2.6-6.9,12.1-32.2,14.2-38c0.2-0.4,0.5-0.9,0.3-1.5c-2.1,1.1-4.1,2.1-6.1,3.2c-3.2,1.7-6.4,3.4-9.7,5
	c-0.7,0.4-1.2,0.8-1.5,1.5c-2.6,6.3-5.1,12.7-7.7,19c1,4.1,2.2,8.1,3.6,12c2,0.1,3.9,0.1,4.8,0.1
	C144.2,197.6,144.2,197.6,144.7,196.2L144.7,196.2z"/>
<path d="M148.7,197.7c0.8,0,1.5,0.1,2.1,0.1c3.1,0.1,6.2,0.2,9.3,0.3c1.6,0,1.6,0,2.1-1.4c3.7-10.5,15.9-44.8,18.3-51.4
	c0.1-0.2,0.1-0.4,0.3-0.9c-1.1,0.2-1.6,0.8-2.3,1.1c-4.1,2.4-8.3,4.8-12.4,7.2c-0.7,0.4-1.2,0.8-1.5,1.6
	c-5.3,14.2-10.6,28.4-15.8,42.6C148.8,197.1,148.8,197.4,148.7,197.7L148.7,197.7z"/>
<path d="M184.7,198.9c4,0.1,8,0.2,12,0.4c1.3,0.1,1.3-0.7,1.5-1.4c2-6.2,19.5-61.8,26.4-83.5c0.1-0.2,0.1-0.5,0.3-1.1
	c-3.4,2.6-6.5,5-9.6,7.4c-1.7,1.3-3.4,2.6-5.2,3.8c-1,0.7-1.6,1.5-1.9,2.6c-5.4,16.5-20.9,63.1-23.1,69.9
	C184.9,197.7,184.6,198.2,184.7,198.9L184.7,198.9z"/>
<path d="M379.1,168.8c1.3,3.1,2.5,6.2,3.8,9.3c0.5-2.5,0.9-4.9,1.2-7.4c-1.2-0.6-2.5-1.1-3.7-1.7
	C380.1,168.8,379.7,168.4,379.1,168.8L379.1,168.8z"/>
<path d="M372.1,164.9c-3.2-1.6-6.5-3.3-9.7-5c-2-1-4-2.1-6.1-3.2c-0.2,0.6,0.1,1.1,0.3,1.5c2.1,5.8,11.7,31.1,14.2,38
	c0.5,1.4,0.5,1.4,2,1.3c0.9,0,2.8-0.1,4.8-0.1c1.4-3.9,2.6-7.9,3.6-12c-2.6-6.3-5.2-12.7-7.7-19
	C373.3,165.7,372.8,165.3,372.1,164.9L372.1,164.9z"/>
<path d="M259.9,101.2h-4.3c-0.6,0-1,0.5-1,1.1v13.8c0,0.6,0.4,1.1,1,1.1h4.3c0.5,0,1-0.5,1-1.1v-13.8
	C260.9,101.6,260.5,101.2,259.9,101.2z"/>
<path d="M495.4,61.8v91.5L428,61.8h-46.6c19.4,25.8,30.9,57.9,30.9,92.7s-12.2,68.9-32.8,95.2h51.2v-92.6l67.9,92.6h51.8V61.8H495.4
	z"/>
<path d="M381.4,61.8L381.4,61.8C353.2,24.3,308.3,0,257.8,0c-58.4,0-109.3,32.4-135.5,80.3c-12.1,22-19,47.3-19,74.2
	c0,12.8,1.6,25.2,4.5,37.1C124.4,259,185.3,309,257.8,309c49.4,0,93.4-23.2,121.7-59.3c20.5-26.2,32.8-59.3,32.8-95.2
	S400.8,87.6,381.4,61.8z M397,178.1c-1.1,6.5-2.6,12.8-4.6,19c-1.3,4.2-2.9,8.4-4.6,12.4c-3.4,7.9-7.4,15.5-12.1,22.6
	c-23,34.8-60.9,58.9-104.8,63c-3.3,0.3-6.6,0.5-10,0.6c-0.5,0-1,0-1.4,0c-1.6,0-3.2,0-4.9,0c-3.4-0.1-6.7-0.3-10-0.6
	c-52.7-4.9-97.1-38.7-116.9-85.6c-1.7-4.1-3.2-8.2-4.6-12.4c-1.4-4.3-2.5-8.7-3.4-13.2c-0.4-1.9-0.8-3.9-1.1-5.8
	c-0.5-3-0.9-6.1-1.2-9.1c-0.4-4.2-0.7-8.4-0.7-12.7c-0.3-23.5,5.2-45.8,15.2-65.4c23-45.4,69.8-76.8,124.3-77.4
	c49.9-0.6,94,24.8,119.6,63.5l0,0c14.4,21.8,22.9,47.8,23.2,75.9c0.1,5.4-0.2,10.8-0.7,16.1C397.9,172,397.5,175,397,178.1
	L397,178.1z"/>
<path d="M276.9,199.4c0-0.2-4.5-16.1-8.1-29c0.2,9.8,0.3,20,0.5,30.4c2.2-0.1,4.5-0.1,6.7-0.1C277.1,200.7,277.2,200.5,276.9,199.4
	L276.9,199.4z"/>
<path d="M257.8,27.1c-53.2,0-98.7,32.6-117.8,78.9c-6.2,14.9-9.6,31.3-9.6,48.5c0,2.9,0.1,5.8,0.3,8.7c2.5-1.1,5-2.2,7.6-3.4
	c36.5-16.9,77.1-40.9,109.8-75.2c0.2-11.2,0.3-18.1,0.3-19.1c0-1.9,4.3-4.9,6.1-5.2c0,5,0,9.5,0,14.1c0,2.7,0,2.7,1.3,2.8
	c0.7,0,3.3,0,4,0c1.2,0,1.3-0.1,1.3-2.8c0-4.6,0-9.2,0-14.1c1.8,0.3,6.1,3.4,6.1,5.2c0,1,0.1,7.9,0.3,19.1
	c35,36.7,79,61.7,117.4,78.6c0.2-2.9,0.3-5.8,0.3-8.7C385.1,84.2,328.1,27.1,257.8,27.1L257.8,27.1z"/>
<path d="M270.7,281.2c45.1-4.5,83.3-32.6,102.1-71.8c-43-0.2-90.4-0.4-103.3-0.4C269.9,232.9,270.3,257.6,270.7,281.2L270.7,281.2z"
	/>
<path d="M334.5,195.9c0.3,0.9,0.3,2.1,1,2.7c0.9,0.7,2.1,0.1,3.2,0.1c3,0,6.1-0.1,9.1-0.2c1.4-0.1,1.4-0.1,1-1.4
	c-1.1-3.1-14.1-39.6-19.5-54.8c-0.4-1.1-1-1.9-2-2.5c-1.9-1.2-11.3-7.5-14.1-9.4c-0.1,0.1-0.2,0.1-0.3,0.1c0.3,0.9,0.5,1.7,0.8,2.6
	C320.6,153.9,327.6,174.9,334.5,195.9L334.5,195.9z"/>
<path d="M300.7,199.9c3.2-0.1,6.4-0.2,9.5-0.3c3.2-0.1,3.2-0.1,2.3-3c-9.1-28.9-18.3-57.8-27.4-86.8c-0.4-1.2-1-2.2-2-3
	c-5.3-4.6-10.4-9.3-15.3-14.3c-0.1-0.1-0.1-0.2-0.2-0.2c0,1.1,0,2.3,0.1,3.4c8.2,27.5,28,94,30.5,102.5
	C298.7,200,298.7,200,300.7,199.9L300.7,199.9z"/>
<path d="M353.3,196.7c0.5,1.5,0.5,1.5,2.1,1.4c3.1-0.1,6.2-0.2,9.3-0.3c0.7,0,1.4-0.1,2.1-0.1c-0.1-0.4-0.1-0.6-0.2-0.8
	c-5.3-14.2-10.6-28.4-15.8-42.6c-0.3-0.8-0.8-1.2-1.5-1.6c-4.1-2.4-8.3-4.8-12.4-7.2c-0.6-0.4-1.2-0.9-2.3-1.1
	c0.1,0.4,0.2,0.7,0.3,0.9C337.4,151.9,349.6,186.2,353.3,196.7L353.3,196.7z"/>
<path d="M317.3,197.9c0.2,0.7,0.3,1.5,1.5,1.4c4-0.2,8-0.3,12-0.4c0.1-0.7-0.2-1.3-0.4-1.9c-2.2-6.8-17.7-53.4-23.1-69.9
	c-0.4-1.1-1-1.9-2-2.6c-1.8-1.2-3.5-2.5-5.2-3.8c-3.1-2.4-6.2-4.8-9.6-7.4c0.2,0.7,0.2,0.9,0.3,1.1
	C297.8,136.1,315.3,191.7,317.3,197.9L317.3,197.9z"/>
<path d="M282.8,200.5c3.8-0.2,7.5-0.3,11.6-0.4c-8.9-29.7-17.7-59.3-26.5-88.8c0.2,12.5,0.4,27,0.7,42.7
	c4.4,15.5,11.1,39.6,12.6,45.3C281.5,200.1,281.8,200.5,282.8,200.5L282.8,200.5z"/>
</svg>
