<?xml version="1.0" encoding="utf-8"?>
<!-- Generator: Adobe Illustrator 27.9.0, SVG Export Plug-In . SVG Version: 6.00 Build 0)  -->
<svg version="1.1" id="Capa_1" xmlns="http://www.w3.org/2000/svg" xmlns:xlink="http://www.w3.org/1999/xlink" x="0px" y="0px"
	 viewBox="0 0 78 78" style="enable-background:new 0 0 78 78;" xml:space="preserve">
<g>
	<path d="M48,36c-10,0-20,0-30,0v6c14,0,28,0,42,0v-6C56,36,52,36,48,36L48,36z"/>
	<path d="M54,18c-12,0-24,0-36,0v6c14,0,28,0,42,0v-6H54L54,18z"/>
	<path d="M48,54c-10,0-20,0-30,0v6c14,0,28,0,42,0v-6C56,54,52,54,48,54L48,54z"/>
</g>
</svg>
